<svg width="560" height="300" viewBox="0 0 560 300" fill="none" xmlns="http://www.w3.org/2000/svg" role="img" aria-label="ATHENA">
  <rect width="560" height="300" fill="#0F1C16"/>
  <g transform="translate(170 2)" stroke="#F3EDE3" stroke-width="28" stroke-linecap="round">
    <line x1="110" y1="76" x2="110" y2="24"/>
    <line x1="110" y1="144" x2="110" y2="196"/>
    <line x1="139.4" y1="93" x2="184.5" y2="67"/>
    <line x1="139.4" y1="127" x2="184.5" y2="153"/>
    <line x1="80.6" y1="93" x2="35.5" y2="67"/>
    <line x1="80.6" y1="127" x2="35.5" y2="153"/>
  </g>
  <g stroke="#F3EDE3" stroke-width="4" stroke-linecap="square" stroke-linejoin="miter" transform="translate(90 218)">
    <path d="M0 52 L16 10 L32 52"/>
    <path d="M64 10 H100 M82 10 V52"/>
    <path d="M132 10 V52 M168 10 V52 M132 31 H168"/>
    <path d="M204 10 H238 M204 31 H233 M204 52 H240 M204 10 V52"/>
    <path d="M276 52 V10 L314 52 V10"/>
    <path d="M348 52 L364 10 L380 52"/>
  </g>
</svg>
